<mxfile host="app.diagrams.net" modified="2023-11-28T16:43:19.136Z" agent="Mozilla/5.0 (Windows NT 10.0; Win64; x64) AppleWebKit/537.36 (KHTML, like Gecko) Chrome/119.0.0.0 Safari/537.36" etag="5Aj2Z6cep0Mzoy3nxoT0" version="22.1.4" type="device">
  <diagram id="nWmja5vuyj6NLi5tdf-u" name="Sayfa -1">
    <mxGraphModel dx="1032" dy="2342" grid="1" gridSize="10" guides="1" tooltips="1" connect="1" arrows="1" fold="1" page="1" pageScale="1" pageWidth="827" pageHeight="1169" math="0" shadow="0">
      <root>
        <mxCell id="0" />
        <mxCell id="1" parent="0" />
        <mxCell id="ZmZWYV2EOeQzJbq0jC5o-9" value="&lt;p style=&quot;margin:0px;margin-top:4px;text-align:center;&quot;&gt;&lt;b&gt;Building&lt;/b&gt;&lt;/p&gt;&lt;hr size=&quot;1&quot;&gt;&lt;p style=&quot;margin:0px;margin-left:4px;&quot;&gt;-FloorAmount: Int&lt;/p&gt;&lt;p style=&quot;margin:0px;margin-left:4px;&quot;&gt;-ElevatAmount: Int&lt;/p&gt;&lt;hr size=&quot;1&quot;&gt;&lt;p style=&quot;margin:0px;margin-left:4px;&quot;&gt;&lt;br&gt;&lt;/p&gt;" style="verticalAlign=top;align=left;overflow=fill;fontSize=12;fontFamily=Helvetica;html=1;whiteSpace=wrap;" parent="1" vertex="1">
          <mxGeometry x="338" y="-930" width="160" height="90" as="geometry" />
        </mxCell>
        <mxCell id="ZmZWYV2EOeQzJbq0jC5o-10" value="&lt;p style=&quot;margin:0px;margin-top:4px;text-align:center;&quot;&gt;&lt;b&gt;Elevator&lt;/b&gt;&lt;/p&gt;&lt;hr size=&quot;1&quot;&gt;&lt;p style=&quot;margin:0px;margin-left:4px;&quot;&gt;&lt;span style=&quot;background-color: initial;&quot;&gt;-ElevTag: String&lt;/span&gt;&lt;br&gt;&lt;/p&gt;&lt;p style=&quot;margin:0px;margin-left:4px;&quot;&gt;&lt;span style=&quot;background-color: initial;&quot;&gt;-IsEmpty: Boolean&lt;/span&gt;&lt;br&gt;&lt;/p&gt;&lt;p style=&quot;margin:0px;margin-left:4px;&quot;&gt;-Fullness: Int&lt;/p&gt;&lt;p style=&quot;margin:0px;margin-left:4px;&quot;&gt;-ElevLevel:Int&lt;/p&gt;&lt;hr size=&quot;1&quot;&gt;&lt;p style=&quot;margin:0px;margin-left:4px;&quot;&gt;+IsReached(IsElevated):&lt;/p&gt;" style="verticalAlign=top;align=left;overflow=fill;fontSize=12;fontFamily=Helvetica;html=1;whiteSpace=wrap;" parent="1" vertex="1">
          <mxGeometry x="178" y="-800" width="160" height="170" as="geometry" />
        </mxCell>
        <mxCell id="ZmZWYV2EOeQzJbq0jC5o-11" value="&lt;p style=&quot;margin:0px;margin-top:4px;text-align:center;&quot;&gt;&lt;b&gt;Floor&lt;/b&gt;&lt;/p&gt;&lt;hr size=&quot;1&quot;&gt;&lt;p style=&quot;margin:0px;margin-left:4px;&quot;&gt;-FloorNumber: Int&lt;/p&gt;&lt;p style=&quot;margin:0px;margin-left:4px;&quot;&gt;-IsElevated: bool&lt;/p&gt;&lt;p style=&quot;margin:0px;margin-left:4px;&quot;&gt;&lt;br&gt;&lt;/p&gt;&lt;hr size=&quot;1&quot;&gt;&lt;p style=&quot;margin:0px;margin-left:4px;&quot;&gt;+IsElevated(ElevLevel):&lt;/p&gt;" style="verticalAlign=top;align=left;overflow=fill;fontSize=12;fontFamily=Helvetica;html=1;whiteSpace=wrap;" parent="1" vertex="1">
          <mxGeometry x="498" y="-800" width="160" height="120" as="geometry" />
        </mxCell>
        <mxCell id="ZmZWYV2EOeQzJbq0jC5o-12" value="&lt;p style=&quot;margin:0px;margin-top:4px;text-align:center;&quot;&gt;&lt;b&gt;Door&lt;/b&gt;&lt;/p&gt;&lt;hr size=&quot;1&quot;&gt;&lt;p style=&quot;margin:0px;margin-left:4px;&quot;&gt;-isDoorOpen: Boolean&lt;br&gt;&lt;/p&gt;&lt;p style=&quot;margin:0px;margin-left:4px;&quot;&gt;-DoorCounter:Float&lt;br&gt;&lt;/p&gt;&lt;p style=&quot;margin:0px;margin-left:4px;&quot;&gt;-IsTarget: Boolean&lt;/p&gt;&lt;p style=&quot;margin:0px;margin-left:4px;&quot;&gt;&lt;br&gt;&lt;/p&gt;&lt;hr size=&quot;1&quot;&gt;&lt;p style=&quot;margin:0px;margin-left:4px;&quot;&gt;+IsDoorOpen():&lt;br&gt;&lt;/p&gt;&lt;p style=&quot;margin:0px;margin-left:4px;&quot;&gt;+ElevatorPose(IsTarget,ElevLevel):&lt;/p&gt;&lt;p style=&quot;margin:0px;margin-left:4px;&quot;&gt;+OpenReachedLight(IsElevated)&lt;/p&gt;" style="verticalAlign=top;align=left;overflow=fill;fontSize=12;fontFamily=Helvetica;html=1;whiteSpace=wrap;" parent="1" vertex="1">
          <mxGeometry x="473" y="-410" width="210" height="170" as="geometry" />
        </mxCell>
        <mxCell id="ZmZWYV2EOeQzJbq0jC5o-13" value="&lt;p style=&quot;margin:0px;margin-top:4px;text-align:center;&quot;&gt;&lt;b&gt;ControlPanel&lt;/b&gt;&lt;/p&gt;&lt;hr size=&quot;1&quot;&gt;&lt;p style=&quot;margin:0px;margin-left:4px;&quot;&gt;-TargetList: List&amp;lt;Integer&amp;gt;&lt;/p&gt;&lt;hr size=&quot;1&quot;&gt;&lt;p style=&quot;margin:0px;margin-left:4px;&quot;&gt;+targetButton();&lt;br&gt;&lt;/p&gt;" style="verticalAlign=top;align=left;overflow=fill;fontSize=12;fontFamily=Helvetica;html=1;whiteSpace=wrap;" parent="1" vertex="1">
          <mxGeometry x="178" y="-530" width="160" height="120" as="geometry" />
        </mxCell>
        <mxCell id="ZmZWYV2EOeQzJbq0jC5o-14" value="&lt;p style=&quot;margin:0px;margin-top:4px;text-align:center;&quot;&gt;&lt;b&gt;CallPanel&lt;/b&gt;&lt;/p&gt;&lt;hr size=&quot;1&quot;&gt;&lt;p style=&quot;margin:0px;margin-left:4px;&quot;&gt;-CallLevel: Int&lt;br&gt;&lt;/p&gt;&lt;hr size=&quot;1&quot;&gt;&lt;p style=&quot;margin:0px;margin-left:4px;&quot;&gt;+callDown():Int&lt;br&gt;&lt;/p&gt;&lt;p style=&quot;margin:0px;margin-left:4px;&quot;&gt;+callUp():Int&lt;br&gt;&lt;/p&gt;" style="verticalAlign=top;align=left;overflow=fill;fontSize=12;fontFamily=Helvetica;html=1;whiteSpace=wrap;" parent="1" vertex="1">
          <mxGeometry x="498" y="-620" width="160" height="120" as="geometry" />
        </mxCell>
        <mxCell id="ZmZWYV2EOeQzJbq0jC5o-15" value="&lt;p style=&quot;margin:0px;margin-top:4px;text-align:center;&quot;&gt;&lt;b&gt;Clock&lt;/b&gt;&lt;/p&gt;&lt;hr size=&quot;1&quot;&gt;&lt;p style=&quot;margin:0px;margin-left:4px;&quot;&gt;-Counter&lt;/p&gt;&lt;hr size=&quot;1&quot;&gt;&lt;p style=&quot;margin:0px;margin-left:4px;&quot;&gt;+Logger(ElevTag,ElevLevel,time):&lt;/p&gt;&lt;p style=&quot;margin:0px;margin-left:4px;&quot;&gt;+CounterTranslater():&lt;/p&gt;" style="verticalAlign=top;align=left;overflow=fill;fontSize=12;fontFamily=Helvetica;html=1;whiteSpace=wrap;" parent="1" vertex="1">
          <mxGeometry x="34" y="-1150" width="206" height="130" as="geometry" />
        </mxCell>
        <mxCell id="ZmZWYV2EOeQzJbq0jC5o-16" value="&lt;p style=&quot;margin:0px;margin-top:4px;text-align:center;&quot;&gt;&lt;b&gt;RandNumGenerator&lt;/b&gt;&lt;/p&gt;&lt;hr size=&quot;1&quot;&gt;&lt;p style=&quot;margin:0px;margin-left:4px;&quot;&gt;-UserLevel:&lt;/p&gt;&lt;p style=&quot;margin:0px;margin-left:4px;&quot;&gt;-StartLevel:&lt;/p&gt;&lt;p style=&quot;margin:0px;margin-left:4px;&quot;&gt;-EndLevel:&lt;/p&gt;&lt;hr size=&quot;1&quot;&gt;&lt;p style=&quot;margin:0px;margin-left:4px;&quot;&gt;+TargetGenerator(StartLevel):&lt;/p&gt;" style="verticalAlign=top;align=left;overflow=fill;fontSize=12;fontFamily=Helvetica;html=1;whiteSpace=wrap;" parent="1" vertex="1">
          <mxGeometry x="614" y="-1150" width="180" height="130" as="geometry" />
        </mxCell>
        <mxCell id="E9tBmmp1lP_5CIoKs5DF-1" value="" style="endArrow=diamondThin;endFill=0;endSize=24;html=1;rounded=0;exitX=0.5;exitY=0;exitDx=0;exitDy=0;" edge="1" parent="1" source="ZmZWYV2EOeQzJbq0jC5o-10">
          <mxGeometry width="160" relative="1" as="geometry">
            <mxPoint x="254" y="-810" as="sourcePoint" />
            <mxPoint x="338" y="-880" as="targetPoint" />
          </mxGeometry>
        </mxCell>
        <mxCell id="E9tBmmp1lP_5CIoKs5DF-2" value="" style="endArrow=diamondThin;endFill=0;endSize=24;html=1;rounded=0;exitX=0.5;exitY=0;exitDx=0;exitDy=0;entryX=0.5;entryY=1;entryDx=0;entryDy=0;" edge="1" parent="1" source="ZmZWYV2EOeQzJbq0jC5o-13" target="ZmZWYV2EOeQzJbq0jC5o-10">
          <mxGeometry width="160" relative="1" as="geometry">
            <mxPoint x="144" y="-570" as="sourcePoint" />
            <mxPoint x="224" y="-650" as="targetPoint" />
          </mxGeometry>
        </mxCell>
        <mxCell id="E9tBmmp1lP_5CIoKs5DF-3" value="" style="endArrow=diamondThin;endFill=0;endSize=24;html=1;rounded=0;exitX=0.5;exitY=0;exitDx=0;exitDy=0;entryX=1;entryY=0.5;entryDx=0;entryDy=0;" edge="1" parent="1" source="ZmZWYV2EOeQzJbq0jC5o-11" target="ZmZWYV2EOeQzJbq0jC5o-9">
          <mxGeometry width="160" relative="1" as="geometry">
            <mxPoint x="544" y="-800" as="sourcePoint" />
            <mxPoint x="624" y="-880" as="targetPoint" />
          </mxGeometry>
        </mxCell>
        <mxCell id="E9tBmmp1lP_5CIoKs5DF-4" value="" style="endArrow=diamondThin;endFill=0;endSize=24;html=1;rounded=0;exitX=0.5;exitY=0;exitDx=0;exitDy=0;entryX=0.5;entryY=1;entryDx=0;entryDy=0;" edge="1" parent="1" source="ZmZWYV2EOeQzJbq0jC5o-14" target="ZmZWYV2EOeQzJbq0jC5o-11">
          <mxGeometry width="160" relative="1" as="geometry">
            <mxPoint x="674" y="-630" as="sourcePoint" />
            <mxPoint x="594" y="-715" as="targetPoint" />
          </mxGeometry>
        </mxCell>
        <mxCell id="E9tBmmp1lP_5CIoKs5DF-5" value="" style="endArrow=diamondThin;endFill=0;endSize=24;html=1;rounded=0;exitX=0.5;exitY=0;exitDx=0;exitDy=0;entryX=0.5;entryY=1;entryDx=0;entryDy=0;" edge="1" parent="1" source="ZmZWYV2EOeQzJbq0jC5o-12" target="ZmZWYV2EOeQzJbq0jC5o-14">
          <mxGeometry width="160" relative="1" as="geometry">
            <mxPoint x="764" y="-450" as="sourcePoint" />
            <mxPoint x="684" y="-535" as="targetPoint" />
          </mxGeometry>
        </mxCell>
        <mxCell id="E9tBmmp1lP_5CIoKs5DF-6" value="" style="endArrow=diamondThin;endFill=0;endSize=24;html=1;rounded=0;exitX=1;exitY=0.5;exitDx=0;exitDy=0;entryX=0;entryY=0.5;entryDx=0;entryDy=0;" edge="1" parent="1" source="ZmZWYV2EOeQzJbq0jC5o-15" target="ZmZWYV2EOeQzJbq0jC5o-9">
          <mxGeometry width="160" relative="1" as="geometry">
            <mxPoint x="218" y="-1040" as="sourcePoint" />
            <mxPoint x="298" y="-1120" as="targetPoint" />
          </mxGeometry>
        </mxCell>
        <mxCell id="E9tBmmp1lP_5CIoKs5DF-7" value="" style="endArrow=diamondThin;endFill=0;endSize=24;html=1;rounded=0;exitX=0;exitY=0.5;exitDx=0;exitDy=0;entryX=1;entryY=0.5;entryDx=0;entryDy=0;" edge="1" parent="1" source="ZmZWYV2EOeQzJbq0jC5o-16" target="ZmZWYV2EOeQzJbq0jC5o-9">
          <mxGeometry width="160" relative="1" as="geometry">
            <mxPoint x="440" y="-1140" as="sourcePoint" />
            <mxPoint x="584" y="-935" as="targetPoint" />
          </mxGeometry>
        </mxCell>
        <mxCell id="E9tBmmp1lP_5CIoKs5DF-8" value="&lt;p style=&quot;margin:0px;margin-top:4px;text-align:center;&quot;&gt;&lt;b&gt;User&lt;/b&gt;&lt;/p&gt;&lt;hr size=&quot;1&quot;&gt;&lt;p style=&quot;margin:0px;margin-left:4px;&quot;&gt;&lt;/p&gt;&lt;p style=&quot;margin:0px;margin-left:4px;&quot;&gt;&lt;br&gt;&lt;/p&gt;" style="verticalAlign=top;align=left;overflow=fill;fontSize=12;fontFamily=Helvetica;html=1;whiteSpace=wrap;" vertex="1" parent="1">
          <mxGeometry x="624" y="-910" width="160" height="60" as="geometry" />
        </mxCell>
        <mxCell id="E9tBmmp1lP_5CIoKs5DF-9" value="Extends" style="endArrow=block;endSize=16;endFill=0;html=1;rounded=0;entryX=0.5;entryY=1;entryDx=0;entryDy=0;exitX=0.5;exitY=0;exitDx=0;exitDy=0;" edge="1" parent="1" source="E9tBmmp1lP_5CIoKs5DF-8" target="ZmZWYV2EOeQzJbq0jC5o-16">
          <mxGeometry width="160" relative="1" as="geometry">
            <mxPoint x="640" y="-1010" as="sourcePoint" />
            <mxPoint x="640" y="-900" as="targetPoint" />
          </mxGeometry>
        </mxCell>
        <mxCell id="E9tBmmp1lP_5CIoKs5DF-10" value="1..*&lt;br&gt;" style="text;html=1;align=center;verticalAlign=middle;resizable=0;points=[];autosize=1;strokeColor=none;fillColor=none;" vertex="1" parent="1">
          <mxGeometry x="734" y="-1022" width="40" height="30" as="geometry" />
        </mxCell>
        <mxCell id="E9tBmmp1lP_5CIoKs5DF-11" value="*" style="text;html=1;align=center;verticalAlign=middle;resizable=0;points=[];autosize=1;strokeColor=none;fillColor=none;" vertex="1" parent="1">
          <mxGeometry x="719" y="-942" width="30" height="30" as="geometry" />
        </mxCell>
        <mxCell id="E9tBmmp1lP_5CIoKs5DF-12" value="1..*" style="text;html=1;align=center;verticalAlign=middle;resizable=0;points=[];autosize=1;strokeColor=none;fillColor=none;" vertex="1" parent="1">
          <mxGeometry x="494" y="-852" width="40" height="30" as="geometry" />
        </mxCell>
        <mxCell id="E9tBmmp1lP_5CIoKs5DF-13" value="*" style="text;html=1;align=center;verticalAlign=middle;resizable=0;points=[];autosize=1;strokeColor=none;fillColor=none;" vertex="1" parent="1">
          <mxGeometry x="534" y="-822" width="30" height="30" as="geometry" />
        </mxCell>
        <mxCell id="E9tBmmp1lP_5CIoKs5DF-14" value="1..3" style="text;html=1;align=center;verticalAlign=middle;resizable=0;points=[];autosize=1;strokeColor=none;fillColor=none;" vertex="1" parent="1">
          <mxGeometry x="584" y="-680" width="40" height="30" as="geometry" />
        </mxCell>
        <mxCell id="E9tBmmp1lP_5CIoKs5DF-15" value="3" style="text;html=1;align=center;verticalAlign=middle;resizable=0;points=[];autosize=1;strokeColor=none;fillColor=none;" vertex="1" parent="1">
          <mxGeometry x="584" y="-642" width="30" height="30" as="geometry" />
        </mxCell>
        <mxCell id="E9tBmmp1lP_5CIoKs5DF-16" value="3..1" style="text;html=1;align=center;verticalAlign=middle;resizable=0;points=[];autosize=1;strokeColor=none;fillColor=none;" vertex="1" parent="1">
          <mxGeometry x="584" y="-502" width="40" height="30" as="geometry" />
        </mxCell>
        <mxCell id="E9tBmmp1lP_5CIoKs5DF-17" value="1" style="text;html=1;align=center;verticalAlign=middle;resizable=0;points=[];autosize=1;strokeColor=none;fillColor=none;" vertex="1" parent="1">
          <mxGeometry x="584" y="-432" width="30" height="30" as="geometry" />
        </mxCell>
        <mxCell id="E9tBmmp1lP_5CIoKs5DF-18" value="1..1" style="text;html=1;align=center;verticalAlign=middle;resizable=0;points=[];autosize=1;strokeColor=none;fillColor=none;" vertex="1" parent="1">
          <mxGeometry x="238" y="-1105" width="40" height="30" as="geometry" />
        </mxCell>
        <mxCell id="E9tBmmp1lP_5CIoKs5DF-19" value="1..1" style="text;html=1;align=center;verticalAlign=middle;resizable=0;points=[];autosize=1;strokeColor=none;fillColor=none;" vertex="1" parent="1">
          <mxGeometry x="304" y="-972" width="40" height="30" as="geometry" />
        </mxCell>
        <mxCell id="E9tBmmp1lP_5CIoKs5DF-20" value="1..5" style="text;html=1;align=center;verticalAlign=middle;resizable=0;points=[];autosize=1;strokeColor=none;fillColor=none;" vertex="1" parent="1">
          <mxGeometry x="284" y="-882" width="40" height="30" as="geometry" />
        </mxCell>
        <mxCell id="E9tBmmp1lP_5CIoKs5DF-21" value="5" style="text;html=1;align=center;verticalAlign=middle;resizable=0;points=[];autosize=1;strokeColor=none;fillColor=none;" vertex="1" parent="1">
          <mxGeometry x="229" y="-832" width="30" height="30" as="geometry" />
        </mxCell>
        <mxCell id="E9tBmmp1lP_5CIoKs5DF-22" value="1..1" style="text;html=1;align=center;verticalAlign=middle;resizable=0;points=[];autosize=1;strokeColor=none;fillColor=none;" vertex="1" parent="1">
          <mxGeometry x="204" y="-632" width="40" height="30" as="geometry" />
        </mxCell>
        <mxCell id="E9tBmmp1lP_5CIoKs5DF-23" value="1" style="text;html=1;align=center;verticalAlign=middle;resizable=0;points=[];autosize=1;strokeColor=none;fillColor=none;" vertex="1" parent="1">
          <mxGeometry x="209" y="-560" width="30" height="30" as="geometry" />
        </mxCell>
        <mxCell id="E9tBmmp1lP_5CIoKs5DF-25" value="" style="edgeStyle=elbowEdgeStyle;html=1;endArrow=block;elbow=vertical;endFill=0;dashed=1;rounded=0;entryX=1;entryY=0.5;entryDx=0;entryDy=0;exitX=0.5;exitY=1;exitDx=0;exitDy=0;" edge="1" parent="1" source="E9tBmmp1lP_5CIoKs5DF-8" target="ZmZWYV2EOeQzJbq0jC5o-14">
          <mxGeometry width="160" relative="1" as="geometry">
            <mxPoint x="683" y="-780" as="sourcePoint" />
            <mxPoint x="843" y="-780" as="targetPoint" />
            <Array as="points">
              <mxPoint x="730" y="-560" />
            </Array>
          </mxGeometry>
        </mxCell>
        <mxCell id="E9tBmmp1lP_5CIoKs5DF-26" value="Call" style="edgeLabel;html=1;align=center;verticalAlign=middle;resizable=0;points=[];" vertex="1" connectable="0" parent="E9tBmmp1lP_5CIoKs5DF-25">
          <mxGeometry x="-0.1429" y="-2" relative="1" as="geometry">
            <mxPoint as="offset" />
          </mxGeometry>
        </mxCell>
        <mxCell id="E9tBmmp1lP_5CIoKs5DF-28" value="" style="endArrow=open;html=1;rounded=0;align=center;verticalAlign=bottom;dashed=1;endFill=0;labelBackgroundColor=none;entryX=0;entryY=0.75;entryDx=0;entryDy=0;exitX=1;exitY=0.5;exitDx=0;exitDy=0;" edge="1" parent="1" source="ZmZWYV2EOeQzJbq0jC5o-10" target="ZmZWYV2EOeQzJbq0jC5o-14">
          <mxGeometry relative="1" as="geometry">
            <mxPoint x="360" y="-643" as="sourcePoint" />
            <mxPoint x="520" y="-643" as="targetPoint" />
            <Array as="points">
              <mxPoint x="390" y="-650" />
              <mxPoint x="430" y="-620" />
            </Array>
          </mxGeometry>
        </mxCell>
        <mxCell id="E9tBmmp1lP_5CIoKs5DF-29" value="Call" style="resizable=0;html=1;align=center;verticalAlign=top;labelBackgroundColor=none;" connectable="0" vertex="1" parent="E9tBmmp1lP_5CIoKs5DF-28">
          <mxGeometry relative="1" as="geometry">
            <mxPoint x="-8" y="-39" as="offset" />
          </mxGeometry>
        </mxCell>
        <mxCell id="E9tBmmp1lP_5CIoKs5DF-32" value="" style="edgeStyle=elbowEdgeStyle;html=1;endArrow=block;elbow=vertical;endFill=0;dashed=1;rounded=0;exitX=0.5;exitY=1;exitDx=0;exitDy=0;entryX=0.5;entryY=1;entryDx=0;entryDy=0;" edge="1" parent="1" target="ZmZWYV2EOeQzJbq0jC5o-13">
          <mxGeometry width="160" relative="1" as="geometry">
            <mxPoint x="757" y="-850" as="sourcePoint" />
            <mxPoint x="240" y="-290" as="targetPoint" />
            <Array as="points">
              <mxPoint x="757" y="-170" />
            </Array>
          </mxGeometry>
        </mxCell>
        <mxCell id="E9tBmmp1lP_5CIoKs5DF-34" value="Use" style="edgeLabel;html=1;align=center;verticalAlign=middle;resizable=0;points=[];" vertex="1" connectable="0" parent="E9tBmmp1lP_5CIoKs5DF-32">
          <mxGeometry x="-0.1473" y="4" relative="1" as="geometry">
            <mxPoint as="offset" />
          </mxGeometry>
        </mxCell>
        <mxCell id="E9tBmmp1lP_5CIoKs5DF-35" value="" style="endArrow=open;html=1;rounded=0;align=center;verticalAlign=bottom;dashed=1;endFill=0;labelBackgroundColor=none;entryX=0.5;entryY=1;entryDx=0;entryDy=0;exitX=0.25;exitY=0;exitDx=0;exitDy=0;" edge="1" parent="1" source="ZmZWYV2EOeQzJbq0jC5o-10" target="ZmZWYV2EOeQzJbq0jC5o-15">
          <mxGeometry relative="1" as="geometry">
            <mxPoint x="57" y="-1017" as="sourcePoint" />
            <mxPoint x="217" y="-832" as="targetPoint" />
            <Array as="points">
              <mxPoint x="140" y="-990" />
            </Array>
          </mxGeometry>
        </mxCell>
        <mxCell id="E9tBmmp1lP_5CIoKs5DF-36" value="Logging Info" style="resizable=0;html=1;align=center;verticalAlign=top;labelBackgroundColor=none;" connectable="0" vertex="1" parent="E9tBmmp1lP_5CIoKs5DF-35">
          <mxGeometry relative="1" as="geometry">
            <mxPoint x="-43" y="-33" as="offset" />
          </mxGeometry>
        </mxCell>
      </root>
    </mxGraphModel>
  </diagram>
</mxfile>
